<svg width="22" height="22" viewBox="0 0 22 22" fill="none" xmlns="http://www.w3.org/2000/svg">
<path d="M17.5969 7.60668C18.2414 8.77125 18.609 10.1095 18.609 11.532C18.609 16.0168 14.9604 19.6653 10.4757 19.6653C5.99101 19.6653 2.34249 16.0168 2.34249 11.5321C2.34249 7.04747 5.99101 3.39886 10.4757 3.39886C11.8626 3.39886 13.1693 3.74812 14.313 4.36275L15.9878 2.6879C14.3503 1.66298 12.4553 1.11407 10.4757 1.11407C7.69295 1.11407 5.07671 2.19773 3.10899 4.16545C1.14127 6.13317 0.0576172 8.74936 0.0576172 11.5321C0.0576172 14.3149 1.14127 16.9311 3.10899 18.8988C5.07676 20.8665 7.69295 21.9502 10.4757 21.9502C13.2584 21.9502 15.8746 20.8665 17.8423 18.8988C19.8101 16.9311 20.8937 14.3149 20.8937 11.5321C20.8937 9.51881 20.3262 7.59286 19.2672 5.93639L17.5969 7.60668Z" fill="#3747FF"/>
<path d="M11.273 9.60683C10.523 9.29952 9.62569 9.44718 9.01744 10.0555C8.20594 10.867 8.20594 12.176 9.01744 12.9812C9.82861 13.7924 11.1376 13.7924 11.9428 12.9812C12.5514 12.3725 12.6987 11.4753 12.3914 10.7257L18.3346 4.7825L19.3244 4.9115L21.9424 2.29316L19.9635 2.02911L19.6991 0.0499573L17.0808 2.6743L17.2101 3.66374L11.273 9.60683Z" fill="#3747FF"/>
<path d="M14.3512 10.8524C14.3898 11.0733 14.4101 11.3003 14.4101 11.5321C14.4101 13.7015 12.6452 15.4664 10.4757 15.4664C8.30636 15.4664 6.54137 13.7015 6.54137 11.5321C6.54137 9.36269 8.30631 7.59776 10.4757 7.59776C10.6665 7.59776 10.8541 7.61168 11.0377 7.63802L12.8793 5.79635C12.1395 5.48515 11.3274 5.31293 10.4757 5.31293C7.0465 5.31293 4.25659 8.10283 4.25659 11.5321C4.25659 14.9613 7.0465 17.7513 10.4757 17.7513C13.905 17.7513 16.6949 14.9613 16.6949 11.5321C16.6949 10.6437 16.5073 9.79854 16.1702 9.03335L14.3512 10.8524Z" fill="#3747FF"/>
</svg>
