<svg width="24" height="28" viewBox="0 0 24 28" fill="none" xmlns="http://www.w3.org/2000/svg">
<path d="M11.0534 9.5V17.2136M11.0534 17.2136L9 15.1602M11.0534 17.2136L13.1068 15.1602M20.2936 16.2136V8" stroke="#D8DDE1" stroke-width="2.3" stroke-miterlimit="10" stroke-linecap="round" stroke-linejoin="round"/>
<path d="M14.3203 2H4.05339C2.91935 2 2 2.91935 2 4.05339V24.1766C2 25.3106 2.91935 26.23 4.05339 26.23H6.10678M14.3203 2V6.10678C14.3203 7.24081 15.2397 8.16016 16.3737 8.16016H20.4805L14.3203 2Z" stroke="#D8DDE1" stroke-width="2.3" stroke-miterlimit="10" stroke-linecap="round" stroke-linejoin="round"/>
<path d="M13.501 23.396C13.501 23.9747 13.3983 24.4577 13.193 24.845C12.9923 25.2323 12.71 25.5217 12.346 25.713C11.982 25.9043 11.562 26 11.086 26H9.462V21.002H11.17C11.6833 21.002 12.1127 21.0953 12.458 21.282C12.8033 21.464 13.0623 21.7323 13.235 22.087C13.4123 22.4417 13.501 22.878 13.501 23.396ZM12.024 23.445C12.024 23.1417 11.9937 22.8897 11.933 22.689C11.8723 22.4883 11.7767 22.339 11.646 22.241C11.52 22.143 11.359 22.094 11.163 22.094H10.89V24.894H11.086C11.4173 24.894 11.6553 24.775 11.8 24.537C11.9493 24.299 12.024 23.935 12.024 23.445ZM18.7337 23.494C18.7337 23.8813 18.6893 24.2337 18.6007 24.551C18.5167 24.8637 18.3813 25.1343 18.1947 25.363C18.0127 25.5917 17.7747 25.7667 17.4807 25.888C17.1913 26.0093 16.839 26.07 16.4237 26.07C16.0177 26.07 15.67 26.0093 15.3807 25.888C15.0913 25.7667 14.8533 25.5917 14.6667 25.363C14.48 25.1343 14.34 24.8637 14.2467 24.551C14.158 24.2337 14.1137 23.879 14.1137 23.487C14.1137 22.969 14.1953 22.5187 14.3587 22.136C14.522 21.7487 14.774 21.45 15.1147 21.24C15.4553 21.03 15.894 20.925 16.4307 20.925C16.9813 20.925 17.4247 21.0323 17.7607 21.247C18.1013 21.457 18.3487 21.7557 18.5027 22.143C18.6567 22.5257 18.7337 22.976 18.7337 23.494ZM15.6117 23.494C15.6117 23.7927 15.6373 24.0517 15.6887 24.271C15.7447 24.4857 15.8333 24.6513 15.9547 24.768C16.076 24.8847 16.2323 24.943 16.4237 24.943C16.629 24.943 16.79 24.8847 16.9067 24.768C17.0233 24.6513 17.1073 24.4857 17.1587 24.271C17.21 24.0517 17.2357 23.7927 17.2357 23.494C17.2357 23.0413 17.175 22.6843 17.0537 22.423C16.937 22.1617 16.7293 22.031 16.4307 22.031C16.23 22.031 16.069 22.0917 15.9477 22.213C15.8263 22.3297 15.74 22.4977 15.6887 22.717C15.6373 22.9317 15.6117 23.1907 15.6117 23.494ZM21.7297 22.038C21.5803 22.038 21.4473 22.073 21.3307 22.143C21.2187 22.2083 21.123 22.3063 21.0437 22.437C20.969 22.563 20.913 22.717 20.8757 22.899C20.8383 23.081 20.8197 23.2887 20.8197 23.522C20.8197 23.8347 20.857 24.0983 20.9317 24.313C21.011 24.5277 21.1253 24.691 21.2747 24.803C21.4287 24.9103 21.6177 24.964 21.8417 24.964C22.047 24.964 22.2407 24.9337 22.4227 24.873C22.6093 24.8123 22.789 24.7377 22.9617 24.649V25.79C22.7563 25.888 22.5393 25.958 22.3107 26C22.082 26.0467 21.8487 26.07 21.6107 26.07C21.0833 26.07 20.654 25.9627 20.3227 25.748C19.9913 25.5333 19.7487 25.2347 19.5947 24.852C19.4407 24.4647 19.3637 24.019 19.3637 23.515C19.3637 23.137 19.4127 22.7917 19.5107 22.479C19.6133 22.1617 19.7627 21.8887 19.9587 21.66C20.1593 21.4267 20.402 21.247 20.6867 21.121C20.976 20.995 21.3073 20.932 21.6807 20.932C21.9047 20.932 22.1543 20.9623 22.4297 21.023C22.705 21.0837 22.9547 21.17 23.1787 21.282L22.7517 22.346C22.593 22.2573 22.432 22.185 22.2687 22.129C22.11 22.0683 21.9303 22.038 21.7297 22.038Z" fill="#D8DDE1"/>
</svg>
