<svg width="35" height="35" viewBox="0 0 35 35" fill="none" xmlns="http://www.w3.org/2000/svg">
<path fill-rule="evenodd" clip-rule="evenodd" d="M27.4159 31.3306C24.6229 33.3374 21.1984 34.5197 17.5 34.5197C8.10657 34.5197 0.480347 26.8935 0.480347 17.5001C0.480347 14.8832 1.07233 12.4035 2.12933 10.1876C1.56802 9.70468 1.21233 8.98931 1.21233 8.19145C1.21233 6.73861 2.39183 5.55911 3.84467 5.55911C4.2913 5.55911 4.71212 5.67056 5.08079 5.86717C5.5526 5.36372 6.05468 4.88889 6.58407 4.44569C6.48429 4.2033 6.42925 3.93792 6.42925 3.6597C6.42925 2.51843 7.35586 1.59182 8.49713 1.59182C9.08232 1.59182 9.61102 1.83538 9.98731 2.22656C12.2537 1.10875 14.804 0.480469 17.5 0.480469C26.8933 0.480469 34.5196 8.10669 34.5196 17.5001C34.5196 21.2984 33.2726 24.8077 31.1661 27.6409C31.5992 28.1101 31.864 28.737 31.864 29.4253C31.864 30.8781 30.6844 32.0576 29.2315 32.0576C28.5279 32.0576 27.8884 31.781 27.4159 31.3306ZM3.09437 10.7152C2.19569 12.618 1.66321 14.727 1.58772 16.9511H4.95293C5.23287 10.4559 10.4558 5.23299 16.9509 4.95306V1.58784C14.6474 1.66601 12.4673 2.23445 10.5119 3.19221C10.5467 3.34251 10.5651 3.49898 10.5651 3.6597C10.5651 4.80105 9.63847 5.72765 8.49713 5.72765C8.03211 5.72765 7.60271 5.57379 7.25717 5.31431C6.78831 5.70892 6.3425 6.13002 5.92209 6.57541C6.26983 7.02156 6.47708 7.58252 6.47708 8.19145C6.47708 9.64429 5.29751 10.8239 3.84467 10.8239C3.58402 10.8239 3.33223 10.7859 3.09437 10.7152ZM1.58772 18.0491C1.87746 26.5826 8.89634 33.4216 17.5 33.4216C20.9685 33.4216 24.1794 32.3102 26.7956 30.4242C26.669 30.1161 26.5992 29.7788 26.5992 29.4253C26.5992 28.8474 26.7857 28.3128 27.1019 27.8785L25.982 26.7585C23.7468 28.8077 20.7683 30.0589 17.5 30.0589C10.7525 30.0589 5.24076 24.7262 4.95293 18.0491H1.58772ZM30.2699 27.0059C32.1472 24.4892 33.2984 21.3998 33.4122 18.0491H30.047C29.9154 21.1014 28.6923 23.8727 26.7584 25.9822L27.9195 27.1431C28.3058 26.9204 28.7539 26.7928 29.2315 26.7928C29.6002 26.7928 29.9512 26.8688 30.2699 27.0059ZM33.4122 16.9511C33.2771 12.9711 31.6782 9.35976 29.1376 6.63889L26.7584 9.018C28.6923 11.1275 29.9154 13.8988 30.047 16.9511H33.4122ZM28.3611 5.86244C25.6403 3.32178 22.029 1.72297 18.049 1.58784V4.95306C21.1012 5.08462 23.8726 6.30776 25.982 8.24162L28.3611 5.86244ZM17.5 6.03929C11.1746 6.03929 6.03917 11.1747 6.03917 17.5001C6.03917 23.8255 11.1746 28.9609 17.5 28.9609C23.8253 28.9609 28.9607 23.8255 28.9607 17.5001C28.9607 11.1747 23.8253 6.03929 17.5 6.03929ZM14.4275 16.1747H16.5784C16.8816 16.1747 17.1274 16.4205 17.1274 16.7238V24.4807C17.1274 24.7839 16.8816 25.0297 16.5784 25.0297H14.4275C14.1243 25.0297 13.8785 24.7839 13.8785 24.4807V16.7238C13.8785 16.4205 14.1243 16.1747 14.4275 16.1747ZM14.9765 17.2728V23.9317H16.0294V17.2728H14.9765ZM12.9847 15.2744C13.0506 15.448 13.0868 15.636 13.0868 15.8322C13.0868 16.7019 12.3779 17.4094 11.5084 17.4094C10.6387 17.4094 9.92993 16.7019 9.92993 15.8322C9.92993 14.9629 10.6389 14.2538 11.5084 14.2538C11.7814 14.2538 12.0387 14.3238 12.2632 14.4467L14.0267 12.9106C13.9607 12.7371 13.9245 12.5492 13.9245 12.3533C13.9245 11.4833 14.6343 10.7742 15.5023 10.7742C16.3721 10.7742 17.0814 11.4835 17.0814 12.3533C17.0814 12.4081 17.0786 12.4624 17.073 12.5159L18.4137 13.177C18.6968 12.9092 19.0786 12.7446 19.4976 12.7446C19.7205 12.7446 19.9327 12.7911 20.1252 12.8751L22.0718 10.8431C21.9706 10.6349 21.9138 10.4013 21.9138 10.1549C21.9138 9.28489 22.6216 8.57576 23.4916 8.57576C24.3614 8.57576 25.0707 9.2851 25.0707 10.1549C25.0707 11.0247 24.3614 11.7339 23.4916 11.7339C23.2687 11.7339 23.0564 11.6874 22.864 11.6035L20.9173 13.6355C21.0186 13.8437 21.0754 14.0772 21.0754 14.3237C21.0754 15.1919 20.3678 15.9015 19.4976 15.9015C18.6276 15.9015 17.9185 15.1917 17.9185 14.3237C17.9185 14.2688 17.9213 14.2146 17.9268 14.1612L16.5853 13.4996C16.3022 13.7667 15.9209 13.9311 15.5023 13.9311C15.2297 13.9311 14.9727 13.8611 14.7483 13.7382L12.9847 15.2744ZM11.5084 16.3114C11.7728 16.3114 11.9888 16.0966 11.9888 15.8322C11.9888 15.5677 11.7729 15.3518 11.5084 15.3518C11.2437 15.3518 11.028 15.5677 11.028 15.8322C11.028 16.0966 11.2439 16.3114 11.5084 16.3114ZM15.5023 12.8331C15.7671 12.8331 15.9834 12.6174 15.9834 12.3533C15.9834 12.0883 15.7673 11.8723 15.5023 11.8723C15.2382 11.8723 15.0226 12.0885 15.0226 12.3533C15.0226 12.6173 15.2383 12.8331 15.5023 12.8331ZM19.4976 14.8034C19.7621 14.8034 19.9773 14.5877 19.9773 14.3237C19.9773 14.0589 19.7623 13.8426 19.4976 13.8426C19.2326 13.8426 19.0166 14.0587 19.0166 14.3237C19.0166 14.5879 19.2328 14.8034 19.4976 14.8034ZM23.4916 10.6359C23.7566 10.6359 23.9726 10.4199 23.9726 10.1549C23.9726 9.88991 23.7566 9.6738 23.4916 9.6738C23.2268 9.6738 23.0118 9.89012 23.0118 10.1549C23.0118 10.4196 23.2268 10.6359 23.4916 10.6359ZM22.4168 13.3521H24.5677C24.871 13.3521 25.1167 13.5979 25.1167 13.9011V24.4807C25.1167 24.7839 24.871 25.0297 24.5677 25.0297H22.4168C22.1136 25.0297 21.8678 24.7839 21.8678 24.4807V13.9011C21.8678 13.5979 22.1136 13.3521 22.4168 13.3521ZM22.9659 14.4501V23.9317H24.0187V14.4501H22.9659ZM18.4215 17.6413H20.5724C20.8756 17.6413 21.1214 17.8871 21.1214 18.1903V24.4807C21.1214 24.7839 20.8756 25.0297 20.5724 25.0297H18.4215C18.1183 25.0297 17.8725 24.7839 17.8725 24.4807V18.1903C17.8725 17.8871 18.1183 17.6413 18.4215 17.6413ZM18.9705 18.7394V23.9317H20.0234V18.7394H18.9705ZM10.4322 19.8048H12.5845C12.8877 19.8048 13.1335 20.0506 13.1335 20.3538V24.4807C13.1335 24.7839 12.8877 25.0297 12.5845 25.0297H10.4322C10.129 25.0297 9.8832 24.7839 9.8832 24.4807V20.3538C9.8832 20.0506 10.129 19.8048 10.4322 19.8048ZM10.9812 20.9028V23.9317H12.0355V20.9028H10.9812ZM29.2315 27.8909C28.3847 27.8909 27.6972 28.5784 27.6972 29.4253C27.6972 30.2721 28.3847 30.9596 29.2315 30.9596C30.0784 30.9596 30.7659 30.2721 30.7659 29.4253C30.7659 28.5784 30.0784 27.8909 29.2315 27.8909ZM3.84467 6.65714C2.99788 6.65714 2.31037 7.34465 2.31037 8.19145C2.31037 9.03831 2.99788 9.72582 3.84467 9.72582C4.69153 9.72582 5.37904 9.03831 5.37904 8.19145C5.37904 7.34465 4.69153 6.65714 3.84467 6.65714ZM8.49713 2.68986C7.96191 2.68986 7.52729 3.12441 7.52729 3.6597C7.52729 4.195 7.96191 4.62962 8.49713 4.62962C9.03242 4.62962 9.46704 4.195 9.46704 3.6597C9.46704 3.12441 9.03242 2.68986 8.49713 2.68986Z" fill="white"/>
</svg>
