<svg width="29" height="35" viewBox="0 0 29 35" fill="none" xmlns="http://www.w3.org/2000/svg">
<g clip-path="url(#clip0_0_13596)">
<path d="M26.3709 3.56863H20.5423C20.2947 3.00364 19.7304 2.60771 19.0751 2.60771H17.8596C17.5391 1.10086 16.1781 0 14.4999 0C12.8217 0 11.4606 1.10086 11.1401 2.60771H9.92476C9.26954 2.60771 8.70516 3.00364 8.45756 3.56863H2.62904C1.22801 3.56863 0.0882568 4.69629 0.0882568 6.08248V32.4861C0.0881885 33.8723 1.22801 35 2.62904 35H26.3709C27.772 35 28.9118 33.8723 28.9118 32.4861V6.08248C28.9118 4.69629 27.7719 3.56863 26.3709 3.56863ZM9.6961 4.20909C9.6961 4.08297 9.79871 3.98029 9.92476 3.98029H12.4411V3.29396C12.4411 2.19857 13.3263 1.37259 14.5 1.37259C15.6736 1.37259 16.5587 2.19857 16.5587 3.29396V3.98022H19.0752C19.2013 3.98022 19.304 4.0829 19.304 4.20902V6.31367H9.6961V4.20909ZM20.6765 7.68626H24.7941V30.4968H4.20588V7.68626H8.32351H20.6765ZM27.5392 32.4861C27.5392 33.1155 27.0151 33.6274 26.3709 33.6274H2.62904C1.98482 33.6274 1.46078 33.1154 1.46078 32.4861V6.08248C1.46078 5.45316 1.98482 4.94122 2.62904 4.94122H8.32351V6.31374H3.51962C3.14057 6.31374 2.83336 6.62102 2.83336 7V31.1832C2.83336 31.5622 3.14064 31.8694 3.51962 31.8694H25.4804C25.8595 31.8694 26.1667 31.5621 26.1667 31.1832V7C26.1667 6.62095 25.8594 6.31374 25.4804 6.31374H20.6765V4.94115H26.3709C27.0151 4.94115 27.5392 5.4531 27.5392 6.08241V32.4861Z" fill="#0C2226"/>
<path d="M14.5 2.33325C13.8946 2.33325 13.402 2.82585 13.402 3.43131C13.402 4.03677 13.8945 4.52937 14.5 4.52937C15.1055 4.52937 15.5981 4.03677 15.5981 3.43131C15.5981 2.82585 15.1055 2.33325 14.5 2.33325ZM14.5 3.70584C14.3486 3.70584 14.2255 3.58272 14.2255 3.43131C14.2255 3.27989 14.3486 3.15678 14.5 3.15678C14.6515 3.15678 14.7746 3.27989 14.7746 3.43131C14.7746 3.58272 14.6515 3.70584 14.5 3.70584Z" fill="#0C2226"/>
<path d="M9.62744 23.8823H8.11766C7.7386 23.8823 7.4314 24.1896 7.4314 24.5686C7.4314 24.9476 7.73867 25.2548 8.11766 25.2548H9.62744C10.0065 25.2548 10.3137 24.9476 10.3137 24.5686C10.3137 24.1896 10.0064 23.8823 9.62744 23.8823Z" fill="#0C2226"/>
<path d="M20.8823 23.8823H11.8235C11.4444 23.8823 11.1372 24.1896 11.1372 24.5686C11.1372 24.9476 11.4445 25.2548 11.8235 25.2548H20.8823C21.2614 25.2548 21.5686 24.9476 21.5686 24.5686C21.5686 24.1896 21.2613 23.8823 20.8823 23.8823Z" fill="#0C2226"/>
<path d="M9.62744 27.1765H8.11766C7.7386 27.1765 7.4314 27.4838 7.4314 27.8628C7.4314 28.2418 7.73867 28.549 8.11766 28.549H9.62744C10.0065 28.549 10.3137 28.2418 10.3137 27.8628C10.3137 27.4838 10.0064 27.1765 9.62744 27.1765Z" fill="#0C2226"/>
<path d="M20.8823 27.1765H11.8235C11.4444 27.1765 11.1372 27.4838 11.1372 27.8628C11.1372 28.2418 11.4445 28.549 11.8235 28.549H20.8823C21.2614 28.549 21.5686 28.2418 21.5686 27.8628C21.5686 27.4838 21.2613 27.1765 20.8823 27.1765Z" fill="#0C2226"/>
<path d="M14.5 9.89429C11.3213 9.89429 8.73535 12.4803 8.73535 15.659C8.73535 18.8376 11.3213 21.4237 14.5 21.4237C17.6787 21.4237 20.2647 18.8377 20.2647 15.659C20.2647 12.4804 17.6787 9.89429 14.5 9.89429ZM14.5 20.0512C12.0782 20.0512 10.1079 18.0809 10.1079 15.659C10.1079 13.2373 12.0782 11.2669 14.5 11.2669C16.9219 11.2669 18.8922 13.2372 18.8922 15.659C18.8922 18.0809 16.9219 20.0512 14.5 20.0512Z" fill="#0C2226"/>
<path d="M17.5414 13.7283C17.2734 13.4603 16.8388 13.4603 16.5709 13.7284L13.785 16.5142L13.0956 15.8249C12.8276 15.5569 12.3931 15.5569 12.125 15.8249C11.8571 16.0929 11.8571 16.5274 12.125 16.7955L13.2997 17.9701C13.417 18.0874 13.5661 18.1532 13.7193 18.1679C13.7411 18.17 13.7631 18.1711 13.785 18.1711C13.807 18.1711 13.829 18.17 13.8508 18.1679C14.0039 18.1533 14.153 18.0873 14.2703 17.9701C14.2704 17.97 14.2705 17.9699 14.2706 17.9697L17.5414 14.6988C17.8093 14.4308 17.8093 13.9963 17.5414 13.7283Z" fill="#0C2226"/>
</g>
<defs>
<clipPath id="clip0_0_13596">
<rect width="29" height="35" fill="white"/>
</clipPath>
</defs>
</svg>
