<svg width="20" height="27" viewBox="0 0 20 27" fill="none" xmlns="http://www.w3.org/2000/svg">
<path d="M16.6667 24.1667C17.1875 24.1319 17.4653 23.8542 17.5 23.3333V21.6667H20V23.3333C19.9653 24.2708 19.6354 25.0521 19.0104 25.6771C18.3854 26.3021 17.6042 26.6319 16.6667 26.6667H3.33333C2.39583 26.6319 1.61458 26.3021 0.989583 25.6771C0.364583 25.0521 0.0347222 24.2708 0 23.3333V21.6667H2.5V23.3333C2.53472 23.8542 2.8125 24.1319 3.33333 24.1667H16.6667ZM13.3333 8.33333C12.8472 8.33333 12.4479 8.17708 12.1354 7.86458C11.8229 7.55208 11.6667 7.15278 11.6667 6.66667V2.5H3.33333C2.8125 2.53472 2.53472 2.8125 2.5 3.33333V10H0V3.33333C0.0347222 2.39583 0.364583 1.61458 0.989583 0.989583C1.61458 0.364583 2.39583 0.0347222 3.33333 0H11.9792C12.8819 0 13.6632 0.329861 14.3229 0.989583L19.0104 5.67708C19.6701 6.33681 20 7.13542 20 8.07292V10H17.5V8.33333H13.3333ZM4.58333 11.6667C5.41667 11.7014 6.11111 11.9792 6.66667 12.5C7.1875 13.0556 7.46528 13.75 7.5 14.5833C7.46528 15.4167 7.1875 16.1111 6.66667 16.6667C6.11111 17.1875 5.41667 17.4653 4.58333 17.5H4.16667V19.1667C4.13194 19.6875 3.85417 19.9653 3.33333 20C2.8125 19.9653 2.53472 19.6875 2.5 19.1667V12.5C2.53472 11.9792 2.8125 11.7014 3.33333 11.6667H4.58333ZM5.83333 14.5833C5.76389 13.8194 5.34722 13.4028 4.58333 13.3333H4.16667V15.8333H4.58333C5.34722 15.7639 5.76389 15.3472 5.83333 14.5833ZM8.33333 12.5C8.36806 11.9792 8.64583 11.7014 9.16667 11.6667H10.4167C11.1111 11.7014 11.7014 11.9444 12.1875 12.3958C12.6389 12.8819 12.8819 13.4722 12.9167 14.1667V17.5C12.8819 18.1944 12.6389 18.7847 12.1875 19.2708C11.7014 19.7222 11.1111 19.9653 10.4167 20H9.16667C8.64583 19.9653 8.36806 19.6875 8.33333 19.1667V12.5ZM10 18.3333H10.4167C10.9375 18.2986 11.2153 18.0208 11.25 17.5V14.1667C11.2153 13.6458 10.9375 13.3681 10.4167 13.3333H10V18.3333ZM17.5 11.6667C18.0208 11.7014 18.2986 11.9792 18.3333 12.5C18.2986 13.0208 18.0208 13.2986 17.5 13.3333H15.8333V15H17.5C18.0208 15.0347 18.2986 15.3125 18.3333 15.8333C18.2986 16.3542 18.0208 16.6319 17.5 16.6667H15.8333V19.1667C15.7986 19.6875 15.5208 19.9653 15 20C14.4792 19.9653 14.2014 19.6875 14.1667 19.1667V12.5C14.2014 11.9792 14.4792 11.7014 15 11.6667H17.5Z" fill="#D8DDE1"/>
</svg>
