<svg width="30" height="30" viewBox="0 0 30 30" fill="none" xmlns="http://www.w3.org/2000/svg">
<g clip-path="url(#clip0_0_13156)">
<path d="M8.54045 9.24816L10.0322 9.12846C10.3216 9.10578 10.5622 9.35287 10.5352 9.63963L10.4161 11.1238C10.3959 11.3817 10.1704 11.5743 9.91254 11.5541C9.65467 11.5339 9.46207 11.3084 9.48223 11.0506L9.49078 10.9437C8.62002 12.1234 8.15883 13.5344 8.15883 15.002C8.15883 16.0549 8.3966 17.0879 8.86383 18.032C8.97809 18.2636 8.88299 18.5439 8.65143 18.6582C8.41986 18.7725 8.13949 18.6774 8.02523 18.4458C7.49461 17.3737 7.22133 16.1981 7.22133 15.002C7.22133 13.2378 7.81652 11.5363 8.91545 10.1578L8.61363 10.182C8.35576 10.2022 8.13029 10.0095 8.11008 9.75166C8.08992 9.49385 8.28258 9.26838 8.54045 9.24816ZM24.3015 22.9851C24.109 22.9851 23.9262 23.0263 23.7614 23.1004L21.8691 21.2081C21.686 21.025 21.3893 21.025 21.2063 21.2081C21.0232 21.3911 21.0232 21.6879 21.2063 21.8709L23.0986 23.7632C23.0245 23.9281 22.9832 24.1109 22.9832 24.3034C22.9832 25.0314 23.5734 25.6217 24.3016 25.6217C25.0297 25.6217 25.6199 25.0314 25.6199 24.3034C25.6199 23.5753 25.0296 22.9851 24.3015 22.9851ZM21.869 8.79576L23.7613 6.90342C23.9262 6.97754 24.109 7.01879 24.3015 7.01879C25.0296 7.01879 25.6198 6.42857 25.6198 5.70043C25.6198 4.97234 25.0296 4.38207 24.3015 4.38207C23.5734 4.38207 22.9831 4.97234 22.9831 5.70043C22.9831 5.89291 23.0244 6.07572 23.0985 6.24055L21.2061 8.13289C21.0231 8.31594 21.0231 8.61271 21.2061 8.7957C21.3892 8.97881 21.686 8.97881 21.869 8.79576ZM8.131 21.2081L6.23865 23.1005C6.07383 23.0264 5.89096 22.9851 5.69853 22.9851C4.97045 22.9851 4.38018 23.5753 4.38018 24.3034C4.38018 25.0316 4.97045 25.6218 5.69853 25.6218C6.42668 25.6218 7.01689 25.0316 7.01689 24.3034C7.01689 24.111 6.97564 23.9282 6.90152 23.7633L8.79387 21.871C8.97691 21.6879 8.97691 21.3911 8.79387 21.2081C8.61076 21.0251 8.31398 21.0251 8.131 21.2081ZM18.0301 21.1381C17.0859 21.6053 16.053 21.8431 15.0001 21.8431C13.5325 21.8431 12.1213 21.3818 10.9417 20.5111L11.0487 20.5197C11.3065 20.5399 11.532 20.3472 11.5522 20.0894C11.5724 19.8315 11.3798 19.606 11.1219 19.5858L9.63773 19.4667C9.35092 19.4399 9.10383 19.6801 9.12656 19.9696L9.24627 21.4614C9.26648 21.7193 9.49195 21.912 9.74982 21.8918C10.0077 21.8715 10.2004 21.6461 10.1801 21.3882L10.1559 21.0864C11.5343 22.1853 13.2359 22.7804 15.0001 22.7804C16.1962 22.7804 17.3717 22.5072 18.4438 21.9765C18.6754 21.8623 18.7705 21.5819 18.6562 21.3504C18.542 21.1189 18.2616 21.0238 18.0301 21.1381ZM11.97 8.86584C12.9141 8.39861 13.9471 8.16084 15.0001 8.16084C16.4675 8.16084 17.8787 8.62209 19.0583 9.49279L18.9514 9.48424C18.6936 9.46402 18.4681 9.65668 18.4479 9.91455C18.4277 10.1724 18.6203 10.3979 18.8782 10.4181L20.3624 10.5372C20.6491 10.564 20.8962 10.3238 20.8736 10.0343L20.7538 8.54246C20.7336 8.28459 20.5082 8.09193 20.2503 8.11215C19.9924 8.13236 19.7998 8.35783 19.82 8.6157L19.8442 8.91758C18.4658 7.81865 16.7643 7.22346 15.0001 7.22346C13.8039 7.22346 12.6285 7.49668 11.5563 8.0273C11.3247 8.14156 11.2296 8.42193 11.3439 8.6535C11.458 8.885 11.7384 8.9801 11.97 8.86584ZM15.4688 26.9238V24.2476C15.4688 23.9887 15.2589 23.7788 15 23.7788C14.7411 23.7788 14.5312 23.9887 14.5312 24.2476V26.9238C14.0346 27.1128 13.6816 27.5933 13.6816 28.1562C13.6816 28.8843 14.2719 29.4746 15 29.4746C15.7281 29.4746 16.3184 28.8843 16.3184 28.1562C16.3184 27.5932 15.9654 27.1128 15.4688 26.9238ZM21.8899 20.2521C21.8696 19.9943 21.6442 19.8016 21.3863 19.8218L21.0845 19.846C22.1834 18.4676 22.7786 16.7661 22.7786 15.0019C22.7786 13.8058 22.5054 12.6302 21.9748 11.558C21.8605 11.3265 21.5801 11.2314 21.3486 11.3456C21.117 11.4599 21.0219 11.7403 21.1362 11.9718C21.6034 12.9159 21.8411 13.949 21.8411 15.0019C21.8411 16.4694 21.3799 17.8805 20.5092 19.0601L20.5178 18.9532C20.538 18.6954 20.3453 18.4699 20.0875 18.4497C19.8296 18.4295 19.6041 18.6221 19.5839 18.88L19.4648 20.3642C19.438 20.6509 19.6782 20.8981 19.9678 20.8753L21.4596 20.7556C21.7174 20.7355 21.9101 20.51 21.8899 20.2521ZM28.1543 13.6836C27.5913 13.6836 27.1108 14.0366 26.9218 14.5332H24.2456C23.9867 14.5332 23.7768 14.7431 23.7768 15.002C23.7768 15.2608 23.9867 15.4707 24.2456 15.4707H26.9218C27.1108 15.9673 27.5913 16.3203 28.1543 16.3203C28.8824 16.3203 29.4727 15.7301 29.4727 15.002C29.4727 14.2739 28.8824 13.6836 28.1543 13.6836ZM5.69853 7.01879C5.89096 7.01879 6.07383 6.97754 6.23865 6.90342L8.131 8.79576C8.31404 8.97881 8.61076 8.97881 8.79381 8.79576C8.97686 8.61271 8.97686 8.31594 8.79381 8.13295L6.90146 6.24061C6.97559 6.07578 7.01689 5.89297 7.01689 5.70049C7.01689 4.97234 6.42662 4.38213 5.69853 4.38213C4.97039 4.38213 4.38018 4.97234 4.38018 5.70049C4.38018 6.42857 4.97039 7.01879 5.69853 7.01879ZM14.5312 3.08012V5.75633C14.5312 6.0152 14.7411 6.22508 15 6.22508C15.2589 6.22508 15.4688 6.0152 15.4688 5.75633V3.08012C15.9654 2.89115 16.3184 2.41062 16.3184 1.84766C16.3184 1.11957 15.7281 0.529297 15 0.529297C14.2719 0.529297 13.6816 1.11957 13.6816 1.84766C13.6816 2.41068 14.0346 2.89115 14.5312 3.08012ZM19.2237 15.8485C19.1119 16.4091 18.8914 16.9304 18.585 17.3896L19.186 17.9906L17.9887 19.1879L17.3878 18.5869C16.9286 18.8933 16.4072 19.1138 15.8466 19.2256V20.0752H14.1534V19.2256C13.5928 19.1139 13.0715 18.8933 12.6123 18.5869L12.0113 19.1879L10.8141 17.9906L11.415 17.3896C11.1086 16.9304 10.8881 16.409 10.7763 15.8485H9.92672V14.1553H10.7763C10.888 13.5946 11.1086 13.0733 11.415 12.6141L10.814 12.0131L12.0113 10.8159L12.6123 11.4169C13.0714 11.1104 13.5928 10.89 14.1534 10.7782V9.92855H15.8466V10.7782C16.4072 10.8899 16.9286 11.1105 17.3877 11.4169L17.9887 10.8159L19.186 12.0132L18.585 12.6142C18.8914 13.0733 19.1119 13.5947 19.2237 14.1553H20.0733V15.8485H19.2237V15.8485ZM17.6293 15.0019C17.6293 13.5498 16.4522 12.3726 15.0001 12.3726C13.5479 12.3726 12.3707 13.5498 12.3707 15.0019C12.3707 16.454 13.5479 17.6312 15.0001 17.6312C16.4521 17.6312 17.6293 16.454 17.6293 15.0019ZM15.6942 14.1134L14.7032 15.1137L14.3003 14.7211C14.1152 14.5411 13.8193 14.5452 13.6393 14.7302C13.4593 14.9152 13.4634 15.2112 13.6484 15.3912L14.3829 16.1071C14.5662 16.2854 14.8594 16.2835 15.0403 16.1016L16.357 14.7726C16.539 14.5895 16.5382 14.2936 16.3552 14.1116C16.1722 13.9296 15.8763 13.9304 15.6942 14.1134ZM6.22312 15.002C6.22312 14.7431 6.01324 14.5332 5.75437 14.5332H3.07822C2.8892 14.0366 2.40873 13.6836 1.8457 13.6836C1.11762 13.6836 0.527344 14.2738 0.527344 15.002C0.527344 15.73 1.11762 16.3203 1.8457 16.3203C2.40867 16.3203 2.8892 15.9673 3.07822 15.4707H5.75443C6.0133 15.4707 6.22312 15.2608 6.22312 15.002Z" fill="white"/>
</g>
<defs>
<clipPath id="clip0_0_13156">
<rect width="30" height="30" fill="white" transform="translate(0 0.00195312)"/>
</clipPath>
</defs>
</svg>
