<svg width="39" height="27" viewBox="0 0 39 27" fill="none" xmlns="http://www.w3.org/2000/svg">
<path d="M38.4473 12.8039C38.4473 11.6993 37.5518 10.8039 36.4473 10.8039L33.5482 10.8039C32.0596 10.8039 31.0927 9.23572 31.7612 7.90567L34.2762 2.90212C34.9448 1.57208 33.9779 0.00390855 32.4893 0.00390868L28.8233 0.003909C28.0673 0.00390906 27.3759 0.430211 27.0364 1.1057L22.3747 10.38C22.2346 10.6587 22.1616 10.9663 22.1616 11.2783L22.1616 25.0039C22.1616 26.1085 23.057 27.0039 24.1616 27.0039L36.4473 27.0039C37.5518 27.0039 38.4473 26.1085 38.4473 25.0039L38.4473 12.8039Z" fill="#3747FF"/>
<path d="M14.7344 27.0039C15.8389 27.0039 16.7344 26.1085 16.7344 25.0039L16.7344 12.8039C16.7344 11.6993 15.8389 10.8039 14.7344 10.8039L11.8353 10.8039C10.3467 10.8039 9.37978 9.23572 10.0483 7.90567L12.5634 2.90212C13.2319 1.57208 12.265 0.00390855 10.7764 0.00390868L7.11046 0.003909C6.35444 0.00390906 5.66303 0.430211 5.3235 1.1057L0.661767 10.38C0.521681 10.6587 0.448723 10.9663 0.448723 11.2783L0.448725 25.0039C0.448725 26.1085 1.34416 27.0039 2.44872 27.0039L14.7344 27.0039Z" fill="#3747FF"/>
</svg>
