<svg width="20" height="20" viewBox="0 0 20 20" fill="none" xmlns="http://www.w3.org/2000/svg">
<path d="M19.4369 16.6954L16.2409 13.4773C18.3351 10.0703 17.9131 5.54217 14.9789 2.58766C11.5523 -0.862552 5.99643 -0.862552 2.5699 2.58766C-0.856634 6.03787 -0.856634 11.6322 2.5699 15.0824C5.55493 18.088 10.1536 18.4736 13.5528 16.2469L16.7214 19.4335C17.4716 20.1888 18.6906 20.1888 19.4408 19.4335C20.1871 18.6781 20.1871 17.4507 19.4369 16.6954ZM4.73053 12.9029C2.50348 10.6604 2.50348 7.00959 4.73053 4.76715C6.95758 2.52471 10.5834 2.52471 12.8104 4.76715C15.0375 7.00959 15.0375 10.6604 12.8104 12.9029C10.5834 15.1453 6.95758 15.1453 4.73053 12.9029Z" fill="#3747FF"/>
</svg>
