<svg width="35" height="35" viewBox="0 0 35 35" fill="none" xmlns="http://www.w3.org/2000/svg">
<g clip-path="url(#clip0_0_13711)">
<path d="M2.10156 18.7528C2.10156 19.9096 3.0428 20.8508 4.19958 20.8508C5.35636 20.8508 6.2976 19.9095 6.2976 18.7528C6.2976 18.5974 6.2801 18.446 6.2479 18.3002L9.26214 16.7906C9.64721 17.2367 10.216 17.5198 10.8501 17.5198C12.4777 17.5198 13.4862 15.7371 12.6498 14.3447L16.4267 10.5614C17.2928 11.0796 18.4154 10.9088 19.0887 10.1287L22.103 11.6384C21.8124 12.9548 22.8207 14.1889 24.1514 14.1889C25.9657 14.1889 26.9253 12.0268 25.7048 10.6822L30.1017 4.07552C31.4686 4.56101 32.9 3.53869 32.9 2.09809C32.8999 0.94124 31.9587 0 30.8019 0C29.6451 0 28.7039 0.94124 28.7039 2.09802C28.7039 2.6397 28.9103 3.13414 29.2486 3.50677L24.8516 10.1134C24.0459 9.82721 23.137 10.0574 22.5634 10.7221L19.5491 9.21238C19.5813 9.06657 19.5988 8.91529 19.5988 8.75991C19.5988 7.60307 18.6576 6.66189 17.5008 6.66189C15.8739 6.66189 14.8645 8.44416 15.7012 9.83698L11.9243 13.6203C10.3606 12.6846 8.40416 14.073 8.80194 15.8743L5.7877 17.3839C4.5236 15.9197 2.10156 16.8106 2.10156 18.7528ZM30.8019 1.02539C31.3934 1.02539 31.8745 1.50657 31.8745 2.09802C31.8745 2.68946 31.3934 3.17064 30.8019 3.17064C30.2105 3.17064 29.7293 2.68946 29.7293 2.09802C29.7293 1.50657 30.2104 1.02539 30.8019 1.02539ZM24.1514 11.0182C24.7428 11.0182 25.224 11.4994 25.224 12.0909C25.224 12.6823 24.7428 13.1635 24.1514 13.1635C23.5599 13.1635 23.0787 12.6823 23.0787 12.0909C23.0787 11.4994 23.5598 11.0182 24.1514 11.0182ZM17.5007 7.68729C18.0922 7.68729 18.5734 8.16847 18.5734 8.75991C18.5734 9.35136 18.0922 9.83254 17.5007 9.83254C16.9093 9.83254 16.4281 9.35136 16.4281 8.75991C16.4281 8.16847 16.9092 7.68729 17.5007 7.68729ZM10.8501 14.3491C11.4416 14.3491 11.9228 14.8303 11.9228 15.4217C11.9228 16.0132 11.4416 16.4944 10.8501 16.4944C10.2587 16.4944 9.7775 16.0132 9.7775 15.4217C9.7775 14.8303 10.2587 14.3491 10.8501 14.3491ZM4.19958 19.8254C3.60813 19.8254 3.12695 19.3443 3.12695 18.7528C3.12695 18.1614 3.60813 17.6802 4.19958 17.6802C4.79103 17.6802 5.27221 18.1614 5.27221 18.7528C5.27221 19.3443 4.79109 19.8254 4.19958 19.8254Z" fill="#3747FF"/>
<path d="M34.0925 33.9746H33.458V22.7085C33.458 22.4252 33.2285 22.1958 32.9453 22.1958C32.6621 22.1958 32.4326 22.4252 32.4326 22.7085V33.9746H29.1713V8.43201H32.4326V20.3159C32.4326 20.5992 32.6621 20.8286 32.9453 20.8286C33.2285 20.8286 33.458 20.5992 33.458 20.3159V8.34806C33.458 7.82894 33.0356 7.40662 32.5166 7.40662H29.0874C28.5683 7.40662 28.1459 7.82901 28.1459 8.34806V33.9746H26.8075V18.3877C26.8075 17.8685 26.3851 17.4462 25.8661 17.4462H25.3478C25.0646 17.4462 24.8351 17.6757 24.8351 17.9589C24.8351 18.2421 25.0646 18.4716 25.3478 18.4716H25.7822V33.9746H22.5209V18.4716H22.9552C23.2384 18.4716 23.4679 18.2421 23.4679 17.9589C23.4679 17.6757 23.2384 17.4462 22.9552 17.4462H22.4368C21.9177 17.4462 21.4955 17.8686 21.4955 18.3877V33.9746H20.157V15.0277C20.157 14.5085 19.7346 14.0863 19.2155 14.0863H15.7864C15.2672 14.0863 14.845 14.5086 14.845 15.0277V33.9746H13.5065V21.7186C13.5065 21.1995 13.0841 20.7772 12.5651 20.7772H9.13589C8.61677 20.7772 8.19444 21.1996 8.19444 21.7186V33.9746H6.85597V25.0495C6.85597 24.5304 6.43364 24.1081 5.91459 24.1081H2.48507C1.96595 24.1081 1.54362 24.5304 1.54362 25.0495V33.9746H0.90918C0.625967 33.9746 0.396484 34.204 0.396484 34.4873C0.396484 34.7705 0.625967 34.9999 0.90918 34.9999H34.0925C34.3757 34.9999 34.6052 34.7705 34.6052 34.4873C34.6052 34.204 34.3757 33.9746 34.0925 33.9746ZM2.56901 33.9746V25.1335H5.8303V33.9746H2.56901ZM9.21956 33.9746V21.8025H12.4809V33.9746H9.21956ZM15.8702 33.9746V15.1117H19.1315V33.9746H15.8702Z" fill="#3747FF"/>
</g>
<defs>
<clipPath id="clip0_0_13711">
<rect width="35" height="35" fill="white"/>
</clipPath>
</defs>
</svg>
