<svg width="35" height="35" viewBox="0 0 35 35" fill="none" xmlns="http://www.w3.org/2000/svg">
<g clip-path="url(#clip0_0_3529)">
<path d="M26.9069 26.8333H25.7402V29.1666H15.2402V30.3333H25.7402V32.0833C25.7402 33.0497 24.9567 33.8333 23.9902 33.8333H11.1569C10.5317 33.8324 9.95406 33.4991 9.64018 32.9583L8.62988 33.5416C9.15283 34.4425 10.1153 34.9979 11.1569 34.9999H23.9902C25.6004 34.9979 26.9049 33.6934 26.9069 32.0833V26.8333Z" fill="#3747FF"/>
<path d="M16.9902 31.5H18.1569V32.6667H16.9902V31.5Z" fill="#3747FF"/>
<path d="M20.4889 15.75V14.5833H18.7093C18.4185 10.8609 15.4614 7.90377 11.7389 7.61296V5.83333H10.5723V7.61296C10.1792 7.64315 9.78927 7.7041 9.4056 7.79496V4.66667H18.7389V3.5H9.4056V2.91667C9.4056 1.95024 10.1892 1.16667 11.1556 1.16667H23.9889C24.415 1.16667 24.8266 1.32218 25.1462 1.60417L25.9181 0.729167C25.3855 0.258911 24.6993 -0.000284596 23.9889 2.34501e-07H11.1556C9.54545 0.00199405 8.24093 1.30652 8.23893 2.91667V8.16667C5.61222 9.26697 3.82206 11.7441 3.60189 14.5833H1.82227V15.75H3.60331C3.87846 19.4796 6.84269 22.4458 10.5723 22.7232V24.5H11.7389V22.7232C15.4685 22.4458 18.4327 19.4796 18.7079 15.75H20.4889ZM10.5723 20.4167V21.5566C9.7585 21.4834 8.96667 21.2546 8.23893 20.8832V19.8333C8.23893 18.2226 9.54488 16.9167 11.1556 16.9167C12.7663 16.9167 14.0723 18.2226 14.0723 19.8333V20.8832C13.3448 21.2552 12.5527 21.4842 11.7389 21.5583V20.4167H10.5723ZM9.4056 14C9.4056 13.0336 10.1892 12.25 11.1556 12.25C12.122 12.25 12.9056 13.0336 12.9056 14C12.9056 14.9664 12.122 15.75 11.1556 15.75C10.1892 15.75 9.4056 14.9664 9.4056 14ZM15.4332 19.9501C15.3702 20.0082 15.303 20.0549 15.2389 20.1088V19.8333C15.2375 18.3095 14.3876 16.9132 13.0346 16.212C13.9717 15.4227 14.3155 14.1319 13.8954 12.9812C13.4753 11.8302 12.3807 11.0645 11.1556 11.0645C9.93054 11.0645 8.83594 11.8302 8.41581 12.9812C7.99569 14.1319 8.33948 15.4227 9.27657 16.212C7.92362 16.9132 7.07369 18.3095 7.07227 19.8333V20.1116C7.00761 20.0586 6.94039 20.0088 6.87801 19.953C5.66919 18.8689 4.91581 17.3673 4.76998 15.75H5.9056V14.5833H4.76855C5.05367 11.5037 7.49268 9.06474 10.5723 8.77962V9.91667H11.7389V8.77962C14.8185 9.06474 17.2575 11.5037 17.5426 14.5833H16.4056V15.75H17.5412C17.3954 17.3673 16.642 18.8689 15.4332 19.953V19.9501Z" fill="#3747FF"/>
<path d="M33.3229 10.5C33.6451 10.5 33.9062 10.2389 33.9062 9.91671V2.91671C33.9062 2.59456 33.6451 2.33337 33.3229 2.33337H20.4896C20.1674 2.33337 19.9062 2.59456 19.9062 2.91671V9.91671C19.9062 10.2389 20.1674 10.5 20.4896 10.5H33.3229ZM21.0729 3.50004H32.7396V9.33337H21.0729V3.50004Z" fill="#3747FF"/>
<path d="M22.2402 4.66675H24.5736V5.83341H22.2402V4.66675Z" fill="#3747FF"/>
<path d="M25.7402 4.66675H31.5736V5.83341H25.7402V4.66675Z" fill="#3747FF"/>
<path d="M22.2402 7H31.5736V8.16667H22.2402V7Z" fill="#3747FF"/>
<path d="M33.2197 11.6666C32.7679 11.6675 32.3321 11.8333 31.9946 12.1332L26.9061 16.6193V11.6666H25.7394V17.5H25.9081L22.5895 20.4283C20.4305 20.5519 18.742 22.3372 18.7394 24.5V25.5291C18.7417 26.1078 18.4145 26.6379 17.8955 26.8945C17.6531 27.0153 17.5258 27.287 17.5879 27.5505C17.65 27.814 17.8852 28.0002 18.1561 28H22.2394C24.4022 27.9974 26.1875 26.3089 26.3111 24.1499L34.6096 14.7454C35.0913 14.1991 35.2084 13.4212 34.9084 12.7572C34.6088 12.0933 33.948 11.6666 33.2197 11.6666ZM22.2394 26.8333H19.5717C19.7919 26.434 19.907 25.9851 19.9061 25.5291V24.5C19.9081 22.9804 21.0748 21.716 22.5895 21.5927L25.1467 24.1499C25.0237 25.6646 23.759 26.8316 22.2394 26.8333ZM33.7346 13.9738L25.7132 23.065L23.6744 21.0267L32.7657 13.0048C33.0377 12.7661 33.4481 12.7795 33.7042 13.0352C33.9599 13.2913 33.9733 13.7017 33.7346 13.9738Z" fill="#3747FF"/>
<path d="M0.655599 32.0833H13.4889C13.8111 32.0833 14.0723 31.8221 14.0723 31.4999V26.8333C14.0723 26.5111 13.8111 26.2499 13.4889 26.2499H9.4056V23.3333H8.23893V26.2499H0.655599C0.333455 26.2499 0.0722656 26.5111 0.0722656 26.8333V31.4999C0.0722656 31.8221 0.333455 32.0833 0.655599 32.0833ZM1.23893 27.4166H12.9056V30.9166H1.23893V27.4166Z" fill="#3747FF"/>
<path d="M2.40625 28.5834H5.32292V29.75H2.40625V28.5834Z" fill="#3747FF"/>
<path d="M6.49023 28.5833H11.7402V29.7499H6.49023V28.5833Z" fill="#3747FF"/>
<path d="M0.655599 8.16659H6.48893C6.81108 8.16659 7.07227 7.9054 7.07227 7.58325V2.91659C7.07227 2.59444 6.81108 2.33325 6.48893 2.33325H0.655599C0.333455 2.33325 0.0722656 2.59444 0.0722656 2.91659V7.58325C0.0722656 7.9054 0.333455 8.16659 0.655599 8.16659ZM1.23893 3.49992H5.9056V6.99992H1.23893V3.49992Z" fill="#3747FF"/>
<path d="M2.40625 4.66663H4.73958V5.83329H2.40625V4.66663Z" fill="#3747FF"/>
</g>
<defs>
<clipPath id="clip0_0_3529">
<rect width="35" height="35" fill="white"/>
</clipPath>
</defs>
</svg>
