<svg width="35" height="35" viewBox="0 0 35 35" fill="none" xmlns="http://www.w3.org/2000/svg">
<g clip-path="url(#clip0_0_3465)">
<path d="M13.125 7.12195H12.0312C11.7294 7.12195 11.4844 6.8764 11.4844 6.57507H10.3906C10.3906 7.4796 11.1267 8.2157 12.0312 8.2157H13.125C14.0295 8.2157 14.7656 7.4796 14.7656 6.57507C14.7656 5.67054 14.0295 4.93445 13.125 4.93445H12.0312C11.7294 4.93445 11.4844 4.6889 11.4844 4.38757C11.4844 4.08625 11.7294 3.8407 12.0312 3.8407H13.125C13.4269 3.8407 13.6719 4.08625 13.6719 4.38757H14.7656C14.7656 3.48304 14.0295 2.74695 13.125 2.74695H12.0312C11.1267 2.74695 10.3906 3.48304 10.3906 4.38757C10.3906 5.2921 11.1267 6.0282 12.0312 6.0282H13.125C13.4269 6.0282 13.6719 6.27375 13.6719 6.57507C13.6719 6.8764 13.4269 7.12195 13.125 7.12195Z" fill="#3747FF"/>
<path d="M17.5 8.2157H19.1406V7.12195H17.5C17.1981 7.12195 16.9531 6.8764 16.9531 6.57507V6.0282H19.1406V4.93445H16.9531V4.38757C16.9531 4.08625 17.1981 3.8407 17.5 3.8407H19.1406V2.74695H17.5C16.5955 2.74695 15.8594 3.48304 15.8594 4.38757V6.57507C15.8594 7.4796 16.5955 8.2157 17.5 8.2157Z" fill="#3747FF"/>
<path d="M21.875 8.2157H22.9688C23.8733 8.2157 24.6094 7.4796 24.6094 6.57507V4.38757C24.6094 3.48304 23.8733 2.74695 22.9688 2.74695H21.875C20.9705 2.74695 20.2344 3.48304 20.2344 4.38757V6.57507C20.2344 7.4796 20.9705 8.2157 21.875 8.2157ZM21.3281 4.38757C21.3281 4.08625 21.5731 3.8407 21.875 3.8407H22.9688C23.2706 3.8407 23.5156 4.08625 23.5156 4.38757V6.57507C23.5156 6.8764 23.2706 7.12195 22.9688 7.12195H21.875C21.5731 7.12195 21.3281 6.8764 21.3281 6.57507V4.38757Z" fill="#3747FF"/>
<path d="M34.4531 12.5781H32.2656V10.9375C32.2656 9.42976 31.039 8.20312 29.5312 8.20312H26.7969V2.20007C26.7969 1.29554 26.0608 0.559448 25.1562 0.559448H9.84375C8.93922 0.559448 8.20312 1.29554 8.20312 2.20007V8.20312H5.46875C3.96102 8.20312 2.73438 9.42976 2.73438 10.9375V14.2636C1.42898 15.0216 0.546875 16.4319 0.546875 18.0469C0.546875 19.6618 1.42898 21.0722 2.73438 21.8302V26.25C2.73438 27.7577 3.96102 28.9844 5.46875 28.9844H12.0312V31.1719H11.4844C9.97664 31.1719 8.75 32.3985 8.75 33.9062V34.4531H26.25V33.9062C26.25 32.3985 25.0234 31.1719 23.5156 31.1719H22.9688V28.9844H29.5312C31.039 28.9844 32.2656 27.7577 32.2656 26.25V22.4219H34.4531V12.5781ZM9.29688 2.20007C9.29688 1.89874 9.54187 1.6532 9.84375 1.6532H25.1562C25.4581 1.6532 25.7031 1.89874 25.7031 2.20007V8.76257C25.7031 9.0639 25.4581 9.30945 25.1562 9.30945H19.5223L16.3149 11.4357C16.1328 11.5582 15.8594 11.4105 15.8594 11.1907V9.30945H9.84375C9.54187 9.30945 9.29688 9.0639 9.29688 8.76257V2.20007ZM3.82812 10.9375C3.82812 10.033 4.56422 9.29687 5.46875 9.29687H8.29992C8.52305 9.93835 9.1268 10.4032 9.84375 10.4032H14.7656V11.1907C14.7656 11.9558 15.388 12.5781 16.153 12.5781C16.4265 12.5781 16.6912 12.4983 16.9192 12.3473L19.8521 10.4032H25.1562C25.8727 10.4032 26.477 9.93835 26.7001 9.29687H29.5312C30.4358 9.29687 31.1719 10.033 31.1719 10.9375V12.5781H26.7969V17.5H23.5156V14.7656H20.2344V21.3281H19.1406V13.6719H15.8594V21.3281H14.7656V15.8594H11.4844V17.5H9.25914C8.98844 15.3453 7.14875 13.6719 4.92188 13.6719C4.54344 13.6719 4.17867 13.7249 3.82812 13.8157V10.9375ZM21.3281 21.3281V15.8594H22.4219V21.3281H21.3281ZM18.0469 21.3281H16.9531V14.7656H18.0469V21.3281ZM13.6719 21.3281H12.5781V16.9531H13.6719V21.3281ZM1.64062 18.0469C1.64062 16.2373 3.11227 14.7656 4.92188 14.7656C6.73148 14.7656 8.20312 16.2373 8.20312 18.0469C8.20312 19.8565 6.73148 21.3281 4.92188 21.3281C3.11227 21.3281 1.64062 19.8565 1.64062 18.0469ZM25.0627 33.3594H9.93727C10.1631 32.7228 10.7712 32.2656 11.4844 32.2656H23.5156C24.2288 32.2656 24.8369 32.7228 25.0627 33.3594ZM21.875 31.1719H13.125V28.9844H21.875V31.1719ZM29.5312 27.8906H5.46875C4.56422 27.8906 3.82812 27.1545 3.82812 26.25V24.6094H31.1719V26.25C31.1719 27.1545 30.4358 27.8906 29.5312 27.8906ZM31.1719 23.5156H3.82812V22.278C4.17867 22.3688 4.54344 22.4219 4.92188 22.4219C7.14875 22.4219 8.98844 20.7484 9.25914 18.5937H11.4844V21.3281H10.3906V22.4219H24.6094V21.3281H23.5156V18.5937H26.7969V22.4219H31.1719V23.5156ZM33.3594 21.3281H27.8906V13.6719H33.3594V21.3281Z" fill="#3747FF"/>
<path d="M15.3125 26.7969C15.6145 26.7969 15.8594 26.552 15.8594 26.25C15.8594 25.948 15.6145 25.7031 15.3125 25.7031C15.0105 25.7031 14.7656 25.948 14.7656 26.25C14.7656 26.552 15.0105 26.7969 15.3125 26.7969Z" fill="#3747FF"/>
<path d="M17.5 26.7969C17.802 26.7969 18.0469 26.552 18.0469 26.25C18.0469 25.948 17.802 25.7031 17.5 25.7031C17.198 25.7031 16.9531 25.948 16.9531 26.25C16.9531 26.552 17.198 26.7969 17.5 26.7969Z" fill="#3747FF"/>
<path d="M19.6875 26.7969C19.9895 26.7969 20.2344 26.552 20.2344 26.25C20.2344 25.948 19.9895 25.7031 19.6875 25.7031C19.3855 25.7031 19.1406 25.948 19.1406 26.25C19.1406 26.552 19.3855 26.7969 19.6875 26.7969Z" fill="#3747FF"/>
<path d="M7.10938 18.0469C7.10938 16.8405 6.12828 15.8594 4.92188 15.8594C3.71547 15.8594 2.73438 16.8405 2.73438 18.0469C2.73438 19.2533 3.71547 20.2344 4.92188 20.2344C6.12828 20.2344 7.10938 19.2533 7.10938 18.0469ZM3.82812 18.0469C3.82812 17.4437 4.31867 16.9531 4.92188 16.9531C5.52508 16.9531 6.01562 17.4437 6.01562 18.0469C6.01562 18.6501 5.52508 19.1406 4.92188 19.1406C4.31867 19.1406 3.82812 18.6501 3.82812 18.0469Z" fill="#3747FF"/>
<path d="M28.9844 14.7656H32.2656V15.8594H28.9844V14.7656Z" fill="#3747FF"/>
<path d="M28.9844 16.9531H32.2656V18.0469H28.9844V16.9531Z" fill="#3747FF"/>
<path d="M28.9844 19.1406H32.2656V20.2344H28.9844V19.1406Z" fill="#3747FF"/>
</g>
<defs>
<clipPath id="clip0_0_3465">
<rect width="35" height="35" fill="white"/>
</clipPath>
</defs>
</svg>
