<svg width="35" height="35" viewBox="0 0 35 35" fill="none" xmlns="http://www.w3.org/2000/svg">
<path d="M21.6016 3.82812C21.2242 3.82812 20.918 4.13438 20.918 4.51172C20.918 4.88906 21.2242 5.19531 21.6016 5.19531C21.9789 5.19531 22.2852 4.88906 22.2852 4.51172C22.2852 4.13438 21.9789 3.82812 21.6016 3.82812Z" fill="#3747FF"/>
<path d="M10.6641 3.82812C10.2867 3.82812 9.98047 4.13438 9.98047 4.51172C9.98047 4.88906 10.2867 5.19531 10.6641 5.19531C11.0414 5.19531 11.3477 4.88906 11.3477 4.51172C11.3477 4.13438 11.0414 3.82812 10.6641 3.82812Z" fill="#3747FF"/>
<path d="M7.92969 3.82812C7.55234 3.82812 7.24609 4.13438 7.24609 4.51172C7.24609 4.88906 7.55234 5.19531 7.92969 5.19531C8.30703 5.19531 8.61328 4.88906 8.61328 4.51172C8.61328 4.13438 8.30703 3.82812 7.92969 3.82812Z" fill="#3747FF"/>
<path d="M5.19531 3.82812C4.81797 3.82812 4.51172 4.13438 4.51172 4.51172C4.51172 4.88906 4.81797 5.19531 5.19531 5.19531C5.57266 5.19531 5.87891 4.88906 5.87891 4.51172C5.87891 4.13438 5.57266 3.82812 5.19531 3.82812Z" fill="#3747FF"/>
<path d="M32.9492 1.09375H2.05078C0.91998 1.09375 0 2.01373 0 3.14453V31.8555C0 32.9863 0.91998 33.9062 2.05078 33.9062H32.9492C34.08 33.9062 35 32.9863 35 31.8555V3.14453C35 2.01373 34.08 1.09375 32.9492 1.09375ZM33.6328 31.8555C33.6328 32.2324 33.3262 32.5391 32.9492 32.5391H2.05078C1.67385 32.5391 1.36719 32.2324 1.36719 31.8555V7.92969H33.6328V31.8555ZM33.6328 6.5625H1.36719V3.14453C1.36719 2.7676 1.67385 2.46094 2.05078 2.46094H32.9492C33.3262 2.46094 33.6328 2.7676 33.6328 3.14453V6.5625Z" fill="#3747FF"/>
<path d="M22.9688 17.5H22.2852V15.4492C22.2852 12.8088 20.1491 10.6641 17.5 10.6641C14.8615 10.6641 12.7148 12.8107 12.7148 15.4492V17.5H12.0312C10.9004 17.5 9.98047 18.42 9.98047 19.5508V27.7539C9.98047 28.8847 10.9004 29.8047 12.0312 29.8047H22.9688C24.0996 29.8047 25.0195 28.8847 25.0195 27.7539V19.5508C25.0195 18.42 24.0996 17.5 22.9688 17.5ZM14.082 15.4492C14.082 13.5646 15.6153 12.0312 17.5 12.0312C19.3935 12.0312 20.918 13.5643 20.918 15.4492V17.5H14.082V15.4492ZM23.6523 27.7539C23.6523 28.1308 23.3457 28.4375 22.9688 28.4375H12.0312C11.6543 28.4375 11.3477 28.1308 11.3477 27.7539V19.5508C11.3477 19.1738 11.6543 18.8672 12.0312 18.8672C13.1348 18.8672 21.3171 18.8672 22.9688 18.8672C23.3457 18.8672 23.6523 19.1738 23.6523 19.5508V27.7539Z" fill="#3747FF"/>
<path d="M30.2148 3.82812H24.3359C23.9585 3.82812 23.6523 4.13417 23.6523 4.51172C23.6523 4.88927 23.9585 5.19531 24.3359 5.19531H30.2148C30.5923 5.19531 30.8984 4.88927 30.8984 4.51172C30.8984 4.13417 30.5923 3.82812 30.2148 3.82812Z" fill="#3747FF"/>
<path d="M17.5 20.2344C16.3692 20.2344 15.4492 21.1544 15.4492 22.2852C15.4492 23.1763 16.0208 23.9362 16.8164 24.2184V26.3867C16.8164 26.7643 17.1225 27.0703 17.5 27.0703C17.8775 27.0703 18.1836 26.7643 18.1836 26.3867V24.2184C18.9792 23.9362 19.5508 23.1764 19.5508 22.2852C19.5508 21.1544 18.6308 20.2344 17.5 20.2344ZM17.5 22.9688C17.1231 22.9688 16.8164 22.6621 16.8164 22.2852C16.8164 21.9082 17.1231 21.6016 17.5 21.6016C17.8769 21.6016 18.1836 21.9082 18.1836 22.2852C18.1836 22.6621 17.8769 22.9688 17.5 22.9688Z" fill="#3747FF"/>
</svg>
