<svg width="33" height="35" viewBox="0 0 33 35" fill="none" xmlns="http://www.w3.org/2000/svg">
<path d="M24.3607 0.512696H17.1764C15.3369 0.512696 13.8457 1.99931 13.8457 3.83318V9.98047" stroke="#3747FF" stroke-miterlimit="10" stroke-linecap="round" stroke-linejoin="round"/>
<path d="M15.2236 18.3887C15.7723 18.7852 16.4469 19.019 17.1764 19.019H23.4162V22.0446L27.3716 19.019H29.0781C30.9176 19.019 32.4088 17.5323 32.4088 15.6984V3.83314C32.4088 1.99926 30.9176 0.512652 29.0781 0.512652H27.5735" stroke="#3747FF" stroke-miterlimit="10" stroke-linecap="round" stroke-linejoin="round"/>
<path d="M20.561 14.152L20.9043 14.4298C21.4486 14.8705 22.1276 15.1109 22.8279 15.1108H27.7014C28.1633 15.1108 28.5354 14.7255 28.5133 14.2587C28.4928 13.8214 28.5143 9.83958 28.5143 9.39066C28.5143 8.94168 28.1504 8.57774 27.7014 8.57774L24.3966 8.56775L24.8012 7.60949C25.0087 7.11825 25.1 6.58577 25.0681 6.05348C25.0362 5.52119 24.882 5.00342 24.6175 4.54043C24.5815 4.47747 24.5332 4.42238 24.4756 4.37845C24.4179 4.33452 24.3519 4.30263 24.2817 4.28469C24.2114 4.26675 24.1383 4.26313 24.0666 4.27402C23.9949 4.28492 23.9261 4.31013 23.8644 4.34814C23.7857 4.39655 23.7207 4.46431 23.6757 4.54495C23.6306 4.6256 23.607 4.71643 23.607 4.80881C23.607 5.66809 23.2932 6.4979 22.7247 7.14226L20.6174 9.5267" stroke="#3747FF" stroke-miterlimit="10" stroke-linecap="round" stroke-linejoin="round"/>
<path d="M20.4983 14.8853H17.7407V8.68061H20.4983V14.8853Z" stroke="#3747FF" stroke-miterlimit="10" stroke-linecap="round" stroke-linejoin="round"/>
<path d="M0.589844 16.543V21.7166C0.589844 23.1627 1.76576 24.3351 3.21642 24.3351H8.37242V26.7434L11.4916 24.3351" stroke="#3747FF" stroke-miterlimit="10" stroke-linecap="round" stroke-linejoin="round"/>
<path d="M15.1502 22.3535C15.2023 22.1452 15.2286 21.9313 15.2285 21.7165V12.3597C15.2285 10.9136 14.0525 9.74121 12.6019 9.74121H3.21635C1.76576 9.74121 0.589844 10.9136 0.589844 12.3597V13.4668" stroke="#3747FF" stroke-miterlimit="10" stroke-linecap="round" stroke-linejoin="round"/>
<path d="M4.46729 16.0441H11.3511" stroke="#3747FF" stroke-miterlimit="10" stroke-linecap="round" stroke-linejoin="round"/>
<path d="M4.46729 18.3202H11.3511" stroke="#3747FF" stroke-miterlimit="10" stroke-linecap="round" stroke-linejoin="round"/>
<path d="M9.61656 13.7402L8.47852 20.624" stroke="#3747FF" stroke-miterlimit="10" stroke-linecap="round" stroke-linejoin="round"/>
<path d="M7.3402 13.7402L6.20215 20.624" stroke="#3747FF" stroke-miterlimit="10" stroke-linecap="round" stroke-linejoin="round"/>
<path d="M22.1734 26.7969V24.28C22.1734 23.2537 21.3389 22.4217 20.3094 22.4217H13.649C12.6196 22.4217 11.7852 23.2537 11.7852 24.28V30.92C11.7852 31.9463 12.6196 32.7783 13.649 32.7783H17.308V34.4873L19.5215 32.7783H20.3094C21.3389 32.7783 22.1734 31.9463 22.1734 30.92V30.0098" stroke="#3747FF" stroke-miterlimit="10" stroke-linecap="round" stroke-linejoin="round"/>
<path d="M16.979 29.8562C18.5818 29.0066 19.4121 28.2836 19.4121 27.1636C19.4121 25.6187 17.5197 25.2325 16.979 26.3912C16.361 25.1939 14.5459 25.6187 14.5459 27.1636C14.5459 28.2836 15.3763 29.0066 16.979 29.8562Z" stroke="#3747FF" stroke-miterlimit="10" stroke-linecap="round" stroke-linejoin="round"/>
</svg>
