<svg width="35" height="33" viewBox="0 0 35 33" fill="none" xmlns="http://www.w3.org/2000/svg">
<path d="M26.8297 13.1517C27.5232 12.7153 28.0195 12.0443 28.2328 11.2485C28.4569 10.4117 28.3419 9.53776 27.9087 8.78758C27.0359 7.27581 25.1214 6.73297 23.5898 7.54009L20.6773 2.49558C20.2921 1.82839 19.668 1.35056 18.9198 1.15006C18.1715 0.949564 17.3919 1.05128 16.7249 1.43656C16.0577 1.82176 15.5799 2.44595 15.3794 3.19408C15.2283 3.75784 15.249 4.33937 15.4331 4.87722C14.0497 8.36341 11.1219 11.9187 7.14677 14.9518C7.08511 14.9105 7.01695 14.8785 6.94381 14.8589C6.76874 14.812 6.58212 14.8366 6.4251 14.9272L2.70867 17.0729C1.45838 17.7948 0.562736 18.9651 0.18676 20.3683C-0.189217 21.7714 0.00123221 23.2328 0.723176 24.4831C1.72683 26.2215 3.5538 27.1944 5.43006 27.1944C6.3497 27.1944 7.28123 26.9606 8.13326 26.4687L8.346 26.3459L12.4446 31.697C12.7277 32.0667 13.1225 32.2843 13.5865 32.3263C13.6392 32.3311 13.6914 32.3334 13.743 32.3334C14.1462 32.3334 14.5168 32.1893 14.8226 31.9119L15.9513 30.8877C16.5794 30.3176 16.6657 29.3788 16.152 28.7039L12.2982 23.6406C16.8755 21.7478 21.3767 21.0061 25.0585 21.5472C25.6162 22.1855 26.4196 22.5358 27.2412 22.5357C27.7318 22.5357 28.2286 22.4111 28.6831 22.1487C30.0648 21.351 30.5399 19.578 29.7421 18.1962L26.8297 13.1517ZM26.7247 9.47118C26.9752 9.90512 27.0418 10.4106 26.9121 10.8946C26.7934 11.3377 26.5229 11.7136 26.1452 11.9664L24.2741 8.72544C25.1515 8.29423 26.2287 8.61217 26.7247 9.47118ZM5.4278 25.8275C4.02459 25.8274 2.65781 25.0996 1.90709 23.7995C1.3678 22.8654 1.22582 21.7726 1.50733 20.7222C1.78876 19.6718 2.45814 18.7963 3.3922 18.257L6.51663 16.4531L10.574 23.4807L7.4496 25.2847C6.81229 25.6527 6.11584 25.8275 5.4278 25.8275ZM15.0325 29.8752L13.9038 30.8994C13.8441 30.9535 13.7894 30.9719 13.7095 30.9646C13.6292 30.9573 13.5789 30.9296 13.5299 30.8657L9.54003 25.6565L11.3284 24.6239L15.064 29.5319C15.1448 29.638 15.1312 29.7856 15.0325 29.8752ZM11.566 22.4643L7.89291 16.1023C11.7191 13.1994 14.6404 9.80942 16.2557 6.41066L24.1407 20.0679C20.3896 19.7674 15.993 20.6023 11.566 22.4643ZM27.9995 20.9646C27.2705 21.3855 26.3354 21.1347 25.9146 20.406L16.8498 4.7053C16.429 3.97645 16.6796 3.04122 17.4084 2.62047C17.6413 2.48601 17.9007 2.41731 18.1645 2.41731C18.2981 2.41731 18.4329 2.43494 18.5659 2.47056C18.9613 2.57652 19.2907 2.82815 19.4933 3.17911L28.558 18.8797C28.9788 19.6086 28.7282 20.5438 27.9995 20.9646ZM28.7429 8.30599C28.5541 7.97903 28.6661 7.56094 28.9931 7.3722L31.7373 5.78784C32.0642 5.59903 32.4823 5.71114 32.6711 6.03803C32.8599 6.36499 32.7478 6.78308 32.4209 6.97182L29.6767 8.55619C29.5691 8.61832 29.4515 8.64792 29.3355 8.64792C29.0992 8.64792 28.8695 8.52529 28.7429 8.30599ZM25.5792 3.9033L27.2504 1.00856C27.4392 0.681664 27.8572 0.569486 28.1842 0.758363C28.5112 0.947103 28.6232 1.36519 28.4344 1.69215L26.7632 4.5869C26.6366 4.80619 26.4067 4.92883 26.1705 4.92883C26.0546 4.92883 25.9371 4.8993 25.8294 4.83709C25.5024 4.64835 25.3904 4.23027 25.5792 3.9033ZM35 12.5637C35 12.9412 34.6939 13.2473 34.3164 13.2473H30.9739C30.5964 13.2473 30.2903 12.9412 30.2903 12.5637C30.2903 12.1861 30.5964 11.8801 30.9739 11.8801H34.3164C34.6939 11.8801 35 12.1861 35 12.5637Z" fill="#3747FF"/>
</svg>
