<svg width="35" height="35" viewBox="0 0 35 35" fill="none" xmlns="http://www.w3.org/2000/svg">
<path d="M18.2224 19.8276C16.9148 19.8215 15.6157 19.6167 14.3697 19.22C12.3789 18.554 10.9002 16.8686 10.4989 14.808C10.0597 12.6926 10.8601 10.4558 12.6943 8.67138C12.8912 8.4797 13.0957 8.29608 13.3079 8.12054C15.186 6.54819 17.7181 6.00176 20.0775 6.65964C22.3617 7.3887 23.94 9.47618 24.019 11.8726C24.1045 13.252 23.6549 14.6113 22.7637 15.6677C22.0763 16.5335 20.9627 16.9425 19.8783 16.7273C19.4349 16.6353 19.048 16.3667 18.8067 15.9834C18.5902 15.6111 18.5347 15.1667 18.6529 14.7526C19.163 12.8243 19.6817 9.89393 19.6868 9.86424C19.7231 9.65896 19.866 9.4886 20.0619 9.41734C20.2578 9.34608 20.4769 9.38474 20.6365 9.51875C20.7962 9.65277 20.8722 9.86178 20.836 10.0671C20.8143 10.189 20.3036 13.0754 19.781 15.0508C19.7437 15.1602 19.753 15.2802 19.8069 15.3826C19.8875 15.4942 20.0092 15.5692 20.1452 15.5911C20.809 15.7018 21.4795 15.4355 21.8864 14.8995C22.5785 14.0716 22.9252 13.009 22.8547 11.9322C22.7977 10.0246 21.5468 8.35928 19.7308 7.77299C17.7484 7.22774 15.6247 7.69354 14.0525 9.0184C13.8651 9.17398 13.6828 9.33685 13.5079 9.50718C12.6011 10.3893 11.1529 12.2197 11.6409 14.5705C11.9688 16.2129 13.1418 17.5589 14.7239 18.1081C17.4597 18.9809 21.3909 19.0859 23.4622 16.5105C23.6657 16.2654 24.0282 16.2289 24.2765 16.4285C24.5248 16.6281 24.567 16.9899 24.3714 17.2414C22.8397 19.1461 20.509 19.8276 18.2224 19.8276Z" fill="#3747FF"/>
<path d="M16.2266 16.803C15.61 16.8136 15.0086 16.6114 14.5236 16.2305C13.404 15.3344 13.3732 13.7778 13.6871 12.7177C13.7928 12.3646 13.9347 12.0235 14.1106 11.6997C14.5483 10.8165 15.2482 10.0903 16.1144 9.62012C17.1932 9.06035 18.5113 9.27263 19.3597 10.1428C19.7807 10.6041 20.0978 11.1504 20.2896 11.7447C20.3912 12.0463 20.2323 12.3736 19.9325 12.4804C19.6327 12.5872 19.3026 12.434 19.1907 12.136C19.0524 11.697 18.8225 11.2922 18.5162 10.9485C18.0216 10.4427 17.2508 10.3276 16.6299 10.6669C15.9802 11.0332 15.4581 11.5895 15.1336 12.261C14.9972 12.5127 14.8871 12.7776 14.8049 13.0518C14.5782 13.8186 14.628 14.8193 15.2535 15.3202C15.9374 15.8693 17.091 15.6372 17.7401 15.0772C18.2238 14.6417 18.6395 14.1361 18.9731 13.5773C19.0812 13.3962 19.2785 13.2876 19.4892 13.2931C19.7 13.2986 19.8914 13.4174 19.9898 13.6038C20.0883 13.7903 20.0785 14.0153 19.9642 14.1925C19.569 14.851 19.077 15.4463 18.5047 15.9584C17.8668 16.4966 17.0611 16.7953 16.2266 16.803Z" fill="#3747FF"/>
<path d="M33.25 35H1.75C0.783942 34.999 0.00106091 34.2161 0 33.25V11.6667C9.17e-06 11.4405 0.130793 11.2347 0.335582 11.1386C0.540371 11.0426 0.78224 11.0735 0.9562 11.2181L15.2695 23.1138C16.5646 24.1833 18.4367 24.183 19.7314 23.1129L34.0433 11.2181C34.2173 11.0732 34.4594 11.0421 34.6643 11.1382C34.8693 11.2343 35.0001 11.4403 35 11.6667V33.25C34.9989 34.2161 34.2161 34.999 33.25 35ZM1.16667 12.91V33.25C1.16708 33.572 1.42801 33.833 1.75 33.8334H33.25C33.572 33.8331 33.833 33.5721 33.8333 33.25V12.91L20.4762 24.0108C18.7492 25.4381 16.2521 25.4384 14.5246 24.0117L1.16667 12.91Z" fill="#3747FF"/>
<path d="M0.583904 12.25C0.329822 12.2502 0.104816 12.086 0.0276178 11.8439C-0.04958 11.6018 0.0387898 11.3376 0.246096 11.1907L5.4961 7.46905C5.75894 7.28688 6.11946 7.35031 6.30435 7.61125C6.48924 7.87219 6.42956 8.23335 6.17055 8.42094L0.920546 12.1426C0.82224 12.2126 0.704559 12.2501 0.583904 12.25Z" fill="#3747FF"/>
<path d="M34.4157 12.25C34.2951 12.2501 34.1774 12.2126 34.0791 12.1426L28.8291 8.42094C28.5701 8.23335 28.5104 7.87219 28.6953 7.61125C28.8802 7.35031 29.2407 7.28688 29.5036 7.46905L34.7536 11.1907C34.9609 11.3376 35.0492 11.6018 34.972 11.8439C34.8948 12.086 34.6698 12.2502 34.4157 12.25Z" fill="#3747FF"/>
<path d="M22.8902 4.08336C22.7694 4.08342 22.6516 4.04589 22.5532 3.97597L19.7649 1.99847C18.4705 0.904709 16.5791 0.893315 15.2717 1.9714L12.4483 3.97603C12.2783 4.09661 12.0568 4.11732 11.8674 4.03035C11.678 3.94339 11.5493 3.76196 11.5299 3.55441C11.5105 3.34686 11.6033 3.14473 11.7733 3.02414L14.5616 1.04664C16.2846 -0.362128 18.7646 -0.350923 20.4748 1.07336L23.2281 3.02391C23.4356 3.17078 23.5241 3.4351 23.4468 3.67729C23.3696 3.91947 23.1444 4.08375 22.8902 4.08336Z" fill="#3747FF"/>
<path d="M0.962778 34.685C0.716943 34.6852 0.497359 34.5313 0.413728 34.3001C0.330098 34.069 0.400373 33.8102 0.589445 33.6531L13.9011 22.593C14.0611 22.457 14.2818 22.4175 14.479 22.4895C14.6763 22.5615 14.8196 22.7339 14.8543 22.941C14.889 23.1481 14.8098 23.3578 14.6468 23.4902L1.33512 34.5502C1.23061 34.6373 1.09884 34.685 0.962778 34.685Z" fill="#3747FF"/>
<path d="M34.0359 34.685C33.9 34.685 33.7683 34.6374 33.6639 34.5502L20.3523 23.4902C20.1893 23.3578 20.11 23.1481 20.1448 22.941C20.1795 22.7339 20.3228 22.5615 20.52 22.4895C20.7173 22.4175 20.938 22.457 21.0979 22.593L34.4093 33.6531C34.5983 33.8102 34.6686 34.069 34.585 34.3001C34.5013 34.5313 34.2818 34.6852 34.0359 34.685Z" fill="#3747FF"/>
<path d="M29.1667 16.6133C28.8445 16.6133 28.5833 16.3521 28.5833 16.03V4.08786C28.5816 4.10011 28.5583 4.0836 28.5192 4.08331H6.48083C6.45505 4.08173 6.42974 4.0908 6.41083 4.1084L6.41667 16.03C6.41667 16.3521 6.1555 16.6133 5.83333 16.6133C5.51117 16.6133 5.25 16.3521 5.25 16.03V4.08331C5.26882 3.42175 5.81921 2.90005 6.48083 2.91664H28.5192C29.1808 2.90011 29.7311 3.42178 29.75 4.08331V16.03C29.75 16.3521 29.4888 16.6133 29.1667 16.6133Z" fill="#3747FF"/>
</svg>
