<svg width="35" height="35" viewBox="0 0 35 35" fill="none" xmlns="http://www.w3.org/2000/svg">
<path d="M32.6661 0.583252H2.33393C1.04706 0.583252 0 1.63038 0 2.91718V22.1666C0 22.4885 0.261338 22.7499 0.583311 22.7499H34.4166C34.7386 22.7499 34.9999 22.4885 34.9999 22.1666V2.91718C35 1.63038 33.9529 0.583252 32.6661 0.583252ZM33.8333 21.5833H1.16669V2.91718C1.16669 2.27316 1.69053 1.74994 2.33393 1.74994H32.6661C33.3095 1.74994 33.8333 2.27316 33.8333 2.91718V21.5833Z" fill="#3747FF"/>
<path d="M34.4167 21.5833H0.583311C0.261338 21.5833 0 21.8446 0 22.1666V25.0826C0 26.3695 1.04706 27.4166 2.33393 27.4166H32.6661C33.9529 27.4166 35 26.3695 35 25.0826V22.1666C35 21.8446 34.7387 21.5833 34.4167 21.5833ZM33.8333 25.0827C33.8333 25.7267 33.3095 26.2499 32.6661 26.2499H2.33393C1.69053 26.2499 1.16669 25.7267 1.16669 25.0827V22.7499H33.8334L33.8333 25.0827Z" fill="#3747FF"/>
<path d="M19.2513 23.9167H15.7513C15.4293 23.9167 15.168 24.1781 15.168 24.5001C15.168 24.822 15.4293 25.0834 15.7513 25.0834H19.2513C19.5733 25.0834 19.8346 24.822 19.8346 24.5001C19.8346 24.1781 19.5733 23.9167 19.2513 23.9167Z" fill="#3747FF"/>
<path d="M32.082 2.91675H2.91534C2.59337 2.91675 2.33203 3.17809 2.33203 3.50006V22.1667C2.33203 22.4887 2.59337 22.7501 2.91534 22.7501H32.082C32.404 22.7501 32.6653 22.4887 32.6653 22.1667V3.50006C32.6653 3.17809 32.404 2.91675 32.082 2.91675ZM31.4987 21.5834H3.49865V4.08337H31.4987V21.5834Z" fill="#3747FF"/>
<path d="M25.0846 30.9167H9.91797C8.95314 30.9167 8.16797 31.7019 8.16797 32.6667C8.16797 33.6316 8.95314 34.4167 9.91797 34.4167H25.0847C26.0495 34.4167 26.8347 33.6316 26.8347 32.6667C26.8347 31.7019 26.0494 30.9167 25.0846 30.9167ZM25.0846 33.2501H9.91797C9.596 33.2501 9.33466 32.9882 9.33466 32.6667C9.33466 32.3453 9.596 32.0834 9.91797 32.0834H25.0847C25.4066 32.0834 25.668 32.3453 25.668 32.6667C25.668 32.9882 25.4066 33.2501 25.0846 33.2501Z" fill="#3747FF"/>
<path d="M23.9167 30.9167C21.9812 30.9167 21.0001 29.543 21.0001 26.8334C21.0001 26.5115 20.7387 26.2501 20.4167 26.2501H14.5834C14.2615 26.2501 14.0001 26.5115 14.0001 26.8334C14.0001 29.543 13.019 30.9167 11.0834 30.9167C10.7615 30.9167 10.5001 31.1781 10.5001 31.5001C10.5001 31.822 10.7615 32.0834 11.0834 32.0834H23.9167C24.2387 32.0834 24.5001 31.822 24.5001 31.5001C24.5001 31.1781 24.2387 30.9167 23.9167 30.9167ZM13.9248 30.9167C14.6429 30.1211 15.0658 28.9363 15.151 27.4167H19.8497C19.9343 28.9363 20.3572 30.1211 21.0759 30.9167H13.9248Z" fill="#3747FF"/>
<path d="M27.8753 17.7706L26.4672 16.3624L27.2506 15.579C27.3959 15.4338 27.4542 15.2226 27.404 15.0237C27.3538 14.8248 27.2028 14.6673 27.0062 14.6078L21.1728 12.8578C20.9669 12.7959 20.7447 12.8525 20.593 13.0042C20.4408 13.1559 20.3848 13.3787 20.4466 13.584L22.1966 19.4174C22.2555 19.6145 22.4136 19.7656 22.6125 19.8158C22.8108 19.8648 23.0226 19.8075 23.1678 19.6624L23.9927 18.8369L25.4008 20.2457C25.5099 20.3553 25.6587 20.4166 25.8132 20.4166C25.9678 20.4166 26.1165 20.3553 26.2256 20.2457L27.8753 18.5954C28.1034 18.3674 28.1034 17.9987 27.8753 17.7706ZM25.8132 19.0084L24.5311 17.7257C24.3823 17.5769 24.1875 17.5028 23.9927 17.5028C23.7972 17.5028 23.6024 17.5775 23.4543 17.725L23.0331 18.1462L21.8752 14.2863L25.7351 15.4442L25.2836 15.8958C25.1593 16.0206 25.0911 16.1863 25.0911 16.3624C25.0911 16.5392 25.1599 16.706 25.2847 16.8297L26.638 18.183L25.8132 19.0084Z" fill="#3747FF"/>
<path d="M24.4987 5.25H8.16534C7.84337 5.25 7.58203 5.51134 7.58203 5.83331V8.75C7.58203 9.07197 7.84337 9.33331 8.16534 9.33331H24.4987C24.8206 9.33331 25.082 9.07197 25.082 8.75V5.83331C25.082 5.51134 24.8206 5.25 24.4987 5.25ZM23.9153 8.16669H8.74865V6.41669H23.9153V8.16669Z" fill="#3747FF"/>
<path d="M15.168 11.6667H10.5013C10.1793 11.6667 9.91797 11.9281 9.91797 12.2501V14.5834C9.91797 14.9053 10.1793 15.1667 10.5013 15.1667H15.168C15.4899 15.1667 15.7513 14.9053 15.7513 14.5834V12.2501C15.7513 11.9281 15.4899 11.6667 15.168 11.6667ZM14.5846 14.0001H11.0846V12.8334H14.5846V14.0001Z" fill="#3747FF"/>
<path d="M24.4987 5.25H8.16534C7.84337 5.25 7.58203 5.51134 7.58203 5.83331V16.9166C7.58203 17.2386 7.84337 17.4999 8.16534 17.4999H22.0522C22.2371 17.4999 22.4103 17.413 22.5201 17.2648C22.6303 17.1167 22.6642 16.9254 22.611 16.7486L21.8726 14.2864L24.3313 15.0243C24.5081 15.0774 24.6994 15.0436 24.8469 14.9333C24.9951 14.8237 25.082 14.6498 25.082 14.4655V5.83331C25.082 5.51134 24.8206 5.25 24.4987 5.25ZM23.9153 13.6815L21.1696 12.8579C20.9637 12.796 20.7414 12.8526 20.5897 13.0043C20.4375 13.1565 20.3815 13.3788 20.4433 13.5847L21.2681 16.3334H8.74865V6.41669H23.9153V13.6815Z" fill="#3747FF"/>
</svg>
