<svg width="61" height="76" viewBox="0 0 61 76" fill="none" xmlns="http://www.w3.org/2000/svg">
<path fill-rule="evenodd" clip-rule="evenodd" d="M54.3689 28.9347C57.9501 33.8228 60.0644 39.8389 60.0644 46.3416C60.0644 62.7224 46.6655 76 30.134 76C24.0875 76 18.4586 74.2253 13.7537 71.171C25.1482 73.9409 40.0079 63.0949 48.1781 45.4585C48.7607 44.2029 49.2949 42.9429 49.779 41.683C49.1782 42.8907 48.5291 44.0975 47.8298 45.2949C37.2825 63.3973 19.7474 72.938 8.66594 66.5989C1.21143 62.3335 -1.42583 51.9543 0.863942 40.107C0.947788 47.831 3.66198 54.1461 8.96415 57.1842C19.4069 63.1549 35.9271 54.1675 45.8676 37.1084C51.8475 26.8439 54.0802 15.9988 52.6444 7.68719C52.571 8.62679 52.4482 9.58694 52.2719 10.5608L48.7573 12.8117L50.0426 8.0238L46.1624 4.89582L51.1594 4.62431L52.9574 0L54.7553 4.62431L59.748 4.89582L55.8712 8.0238L57.1566 12.8117L54.2877 10.9745C55.8263 16.0296 55.8608 22.2822 54.3689 28.9347Z" fill="#3747FF"/>
<path fill-rule="evenodd" clip-rule="evenodd" d="M10.1937 55.0746C22.4906 62.1134 38.3089 45.2101 43.7407 35.8896C45.8931 32.1911 47.8138 27.8735 49.0706 23.3708C43.9128 19.1919 37.3183 16.6831 30.1344 16.6831C24.2141 16.6831 18.6941 18.3842 14.0489 21.3246C7.41643 25.5455 2.96741 33.2104 3.37108 41.1126C3.67621 46.4666 5.15086 52.1873 10.1937 55.0746ZM9.79697 44.5883C9.79697 40.1867 13.3963 36.6202 17.8375 36.6202C22.2796 36.6202 25.8816 40.1867 25.8816 44.5883C25.8816 48.9899 22.2788 52.5598 17.8375 52.5598C13.3954 52.559 9.79697 48.9899 9.79697 44.5883Z" fill="#F6B800"/>
</svg>
